# xmcd CD database file
#
# Track frame offsets:
#	150
#	21402
#	42293
#	72149
#	94958
#	112807
#	129271
#
# Disc length: 2007 seconds
#
# Revision: 0
# Processed by: cddbd v1.5.2PL0 Copyright (c) Steve Scherf et al.
# Submitted via: CDex 1.51
#
DISCID=5507d507
DTITLE=Carl Filipiak - Electric Thoughts
DYEAR=1988
DGENRE=Jazz
TTITLE0=Electric Thoughts
TTITLE1=2 P.M.
TTITLE2=The Great Suspender
TTITLE3=Bop Rock
TTITLE4=No Return
TTITLE5=Straight Red
TTITLE6=Off Center
EXTD=YEAR: 1988
EXTT0=
EXTT1=
EXTT2=
EXTT3=
EXTT4=
EXTT5=
EXTT6=
PLAYORDER=
